<svg width="74" height="69" viewBox="0 0 74 69" fill="none" xmlns="http://www.w3.org/2000/svg">
<path fill-rule="evenodd" clip-rule="evenodd" d="M68.4411 27.6162C65.1056 30.9435 59.6388 33.4754 54.0829 34.5C59.6388 35.5246 65.1056 38.0566 68.4407 41.3838L72.2273 45.1612L66.7828 46.1417C61.9868 47.0052 55.968 46.0575 50.8273 43.8412C54.676 47.7156 57.5028 52.7598 58.104 57.2797L58.7863 62.4108L53.7636 60.2204C49.3391 58.2909 45.0675 54.225 42.3054 49.6144C42.977 54.8581 42.0842 60.4885 39.721 64.4746L37.0385 69L34.3559 64.4746C31.9929 60.4885 31.0999 54.8581 31.7718 49.6144C29.0097 54.225 24.738 58.2905 20.3135 60.2204L15.2906 62.4108L15.973 57.2797C16.5741 52.7598 19.4009 47.7156 23.2499 43.8412C18.109 46.0575 12.0902 47.0056 7.29427 46.1417L1.84961 45.1612L5.63634 41.3838C8.97185 38.0563 14.4388 35.5246 19.9947 34.5C14.4386 33.4753 8.97185 30.9435 5.63634 27.6162L1.84961 23.8388L7.29427 22.8583C12.0902 21.9946 18.1092 22.9425 23.2499 25.1587C19.4009 21.2846 16.5741 16.24 15.973 11.7202L15.2906 6.58884L20.3136 8.7797C24.7381 10.7093 29.0099 14.775 31.772 19.3855C31.1001 14.1418 31.9931 8.51139 34.3561 4.52526L37.0388 0L39.7213 4.52526C42.0845 8.51139 42.9773 14.1418 42.3054 19.3855C45.0678 14.775 49.3395 10.7095 53.764 8.7797L58.7871 6.58884L58.1044 11.7202C57.5035 16.24 54.6767 21.2846 50.8276 25.1587C55.9684 22.9425 61.9872 21.9945 66.7831 22.8583L72.2281 23.8388L68.4411 27.6162ZM30.0637 40.9501C33.8666 44.496 40.0325 44.496 43.8354 40.9501C47.6382 37.4042 47.6382 31.6549 43.8354 28.1089C40.0325 24.5629 33.8666 24.5629 30.0637 28.1089C26.2608 31.6549 26.2608 37.4042 30.0637 40.9501Z" fill="#F6DBA7"/>
</svg>
