<svg width="1440" height="493" viewBox="0 0 1440 493" fill="none" xmlns="http://www.w3.org/2000/svg">
<g clip-path="url(#clip0_154_45)">
<rect width="1440" height="493" fill="#2F3A2A"/>
<g opacity="0.6">
<path fill-rule="evenodd" clip-rule="evenodd" d="M1492.61 369.629C1486.98 375.609 1477.74 380.159 1468.36 382C1477.74 383.841 1486.98 388.392 1492.61 394.371L1499.01 401.159L1489.81 402.921C1481.71 404.473 1471.54 402.77 1462.86 398.787C1469.36 405.75 1474.13 414.815 1475.15 422.937L1476.3 432.159L1467.82 428.222C1460.34 424.755 1453.13 417.448 1448.46 409.162C1449.6 418.586 1448.09 428.704 1444.1 435.867L1439.56 444L1435.03 435.867C1431.04 428.704 1429.53 418.586 1430.67 409.162C1426 417.448 1418.79 424.754 1411.31 428.222L1402.83 432.159L1403.98 422.937C1405 414.815 1409.77 405.75 1416.27 398.787C1407.59 402.77 1397.42 404.474 1389.32 402.921L1380.12 401.159L1386.52 394.371C1392.15 388.391 1401.39 383.841 1410.77 382C1401.39 380.158 1392.15 375.609 1386.52 369.629L1380.12 362.841L1389.32 361.079C1397.42 359.527 1407.59 361.23 1416.27 365.213C1409.77 358.251 1405 349.185 1403.98 341.062L1402.83 331.841L1411.31 335.778C1418.79 339.246 1426 346.552 1430.67 354.838C1429.53 345.414 1431.04 335.296 1435.03 328.132L1439.57 320L1444.1 328.132C1448.09 335.296 1449.6 345.414 1448.46 354.838C1453.13 346.552 1460.34 339.246 1467.82 335.778L1476.3 331.841L1475.15 341.062C1474.13 349.185 1469.36 358.251 1462.86 365.213C1471.54 361.23 1481.71 359.526 1489.81 361.079L1499.01 362.841L1492.61 369.629ZM1427.78 393.592C1434.21 399.964 1444.62 399.964 1451.05 393.592C1457.47 387.219 1457.47 376.887 1451.05 370.515C1444.62 364.142 1434.21 364.142 1427.78 370.515C1421.36 376.887 1421.36 387.219 1427.78 393.592Z" fill="#F6DBA7"/>
</g>
<g opacity="0.6">
<path fill-rule="evenodd" clip-rule="evenodd" d="M1286.62 -32.9495C1276.8 -22.582 1260.69 -14.6925 1244.33 -11.5C1260.69 -8.30724 1276.8 -0.417816 1286.62 9.94948L1297.78 21.7197L1281.74 24.7748C1267.61 27.4655 1249.88 24.5125 1234.73 17.6067C1246.07 29.679 1254.4 45.3965 1256.17 59.4801L1258.18 75.4686L1243.38 68.6434C1230.35 62.6309 1217.77 49.9621 1209.63 35.5957C1211.61 51.9347 1208.98 69.4787 1202.02 81.8992L1194.11 96L1186.21 81.8992C1179.25 69.4787 1176.62 51.9347 1178.6 35.5957C1170.46 49.9621 1157.88 62.6299 1144.84 68.6434L1130.05 75.4686L1132.06 59.4801C1133.83 45.3965 1142.15 29.679 1153.49 17.6067C1138.35 24.5125 1120.62 27.4666 1106.49 24.7748L1090.45 21.7197L1101.6 9.94948C1111.43 -0.418892 1127.54 -8.30724 1143.9 -11.5C1127.54 -14.693 1111.43 -22.582 1101.6 -32.9495L1090.45 -44.7195L1106.49 -47.775C1120.62 -50.466 1138.35 -47.5125 1153.49 -40.607C1142.15 -52.6785 1133.83 -68.397 1132.06 -82.4805L1130.05 -98.4695L1144.84 -91.643C1157.88 -85.6305 1170.46 -72.962 1178.6 -58.596C1176.62 -74.935 1179.25 -92.479 1186.21 -104.9L1194.11 -119L1202.02 -104.9C1208.98 -92.479 1211.61 -74.935 1209.63 -58.596C1217.77 -72.962 1230.35 -85.63 1243.39 -91.643L1258.18 -98.4695L1256.17 -82.4805C1254.4 -68.397 1246.07 -52.6785 1234.74 -40.607C1249.88 -47.5125 1267.61 -50.4665 1281.74 -47.775L1297.78 -44.7195L1286.62 -32.9495ZM1173.57 8.59821C1184.77 19.647 1202.93 19.647 1214.14 8.59821C1225.34 -2.45065 1225.34 -20.3652 1214.14 -31.4143C1202.93 -42.4633 1184.77 -42.4633 1173.57 -31.4143C1162.36 -20.3652 1162.36 -2.45065 1173.57 8.59821Z" fill="#F6DBA7"/>
</g>
<g opacity="0.6">
<path fill-rule="evenodd" clip-rule="evenodd" d="M55.0089 93.8263C49.014 99.2271 39.1886 103.337 29.203 105C39.1886 106.663 49.014 110.773 55.0083 116.174L61.8139 122.305L52.0284 123.897C43.4087 125.298 32.5911 123.76 23.3516 120.163C30.2689 126.451 35.3495 134.639 36.4302 141.976L37.6564 150.305L28.6291 146.749C20.677 143.617 12.9996 137.017 8.03533 129.534C9.24231 138.045 7.63766 147.184 3.39031 153.654L-1.43094 161L-6.25226 153.654C-10.4993 147.184 -12.1043 138.045 -10.8968 129.534C-15.861 137.017 -23.5385 143.616 -31.4907 146.749L-40.5183 150.305L-39.2919 141.976C-38.2116 134.639 -33.131 126.451 -26.2131 120.163C-35.4529 123.76 -46.2704 125.299 -54.8901 123.897L-64.6758 122.305L-57.8699 116.174C-51.875 110.772 -42.0494 106.663 -32.0636 105C-42.0497 103.337 -51.875 99.2271 -57.8699 93.8263L-64.6758 87.6949L-54.8901 86.1032C-46.2704 84.7015 -35.4525 86.24 -26.2131 89.8373C-33.131 83.5489 -38.2116 75.3607 -39.2919 68.0241L-40.5183 59.6949L-31.4904 63.2511C-23.5383 66.3832 -15.8607 72.9826 -10.8964 80.4663C-12.1039 71.9548 -10.499 62.8156 -6.252 56.3454L-1.43027 49L3.39098 56.3454C7.63833 62.8156 9.24297 71.9548 8.03533 80.4663C13.0002 72.9826 20.6777 66.3835 28.6297 63.2511L37.6578 59.6949L36.4308 68.0241C35.3509 75.3607 30.2703 83.5489 23.3523 89.8373C32.5918 86.24 43.4094 84.7012 52.0291 86.1032L61.8152 87.6949L55.0089 93.8263ZM-13.9667 115.47C-7.13165 121.225 3.95024 121.225 10.7851 115.47C17.62 109.714 17.62 100.382 10.7851 94.6261C3.95024 88.8703 -7.13165 88.8703 -13.9667 94.6261C-20.8017 100.382 -20.8017 109.714 -13.9667 115.47Z" fill="#F6DBA7"/>
</g>
<g opacity="0.6">
<path fill-rule="evenodd" clip-rule="evenodd" d="M1178.37 464.048C1169 473.933 1153.63 481.456 1138.02 484.5C1153.63 487.544 1169 495.067 1178.37 504.952L1189.02 516.175L1173.71 519.088C1160.23 521.653 1143.32 518.837 1128.87 512.253C1139.68 523.764 1147.63 538.75 1149.32 552.179L1151.24 567.424L1137.12 560.916C1124.68 555.183 1112.68 543.103 1104.91 529.405C1106.8 544.984 1104.29 561.712 1097.65 573.555L1090.11 587L1082.57 573.555C1075.93 561.712 1073.42 544.984 1075.3 529.405C1067.54 543.103 1055.53 555.182 1043.1 560.916L1028.98 567.424L1030.9 552.179C1032.59 538.75 1040.53 523.764 1051.35 512.253C1036.9 518.837 1019.98 521.654 1006.5 519.088L991.199 516.175L1001.84 504.952C1011.22 495.066 1026.58 487.544 1042.2 484.5C1026.58 481.456 1011.22 473.933 1001.84 464.048L991.199 452.826L1006.5 449.912C1019.98 447.346 1036.9 450.162 1051.35 456.747C1040.53 445.237 1032.59 430.249 1030.9 416.821L1028.98 401.576L1043.1 408.085C1055.53 413.817 1067.54 425.897 1075.3 439.595C1073.42 424.015 1075.93 407.287 1082.57 395.445L1090.11 382L1097.65 395.445C1104.29 407.287 1106.8 424.015 1104.91 439.595C1112.68 425.897 1124.68 413.818 1137.12 408.085L1151.24 401.576L1149.32 416.821C1147.63 430.249 1139.69 445.237 1128.87 456.747C1143.32 450.162 1160.23 447.346 1173.71 449.912L1189.02 452.826L1178.37 464.048ZM1070.5 503.663C1081.19 514.198 1098.52 514.198 1109.21 503.663C1119.9 493.128 1119.9 476.047 1109.21 465.512C1098.52 454.977 1081.19 454.977 1070.5 465.512C1059.81 476.047 1059.81 493.128 1070.5 503.663Z" fill="#F6DBA7"/>
</g>
<g opacity="0.6">
<path fill-rule="evenodd" clip-rule="evenodd" d="M214.375 464.048C204.999 473.933 189.633 481.456 174.017 484.5C189.633 487.544 204.999 495.067 214.374 504.952L225.017 516.175L209.714 519.088C196.233 521.653 179.315 518.837 164.866 512.253C175.684 523.764 183.629 538.75 185.319 552.179L187.237 567.424L173.119 560.916C160.683 555.183 148.676 543.103 140.912 529.405C142.8 544.984 140.29 561.712 133.648 573.555L126.108 587L118.568 573.555C111.926 561.712 109.416 544.984 111.304 529.405C103.541 543.103 91.5337 555.182 79.0971 560.916L64.9788 567.424L66.8968 552.179C68.5864 538.75 76.532 523.764 87.3509 512.253C72.9007 518.837 55.983 521.654 42.5026 519.088L27.1987 516.175L37.8425 504.952C47.218 495.066 62.5844 487.544 78.2013 484.5C62.5839 481.456 47.218 473.933 37.8425 464.048L27.1987 452.826L42.5026 449.912C55.983 447.346 72.9012 450.162 87.3509 456.747C76.532 445.237 68.5864 430.249 66.8968 416.821L64.9788 401.576L79.0977 408.085C91.5341 413.817 103.541 425.897 111.305 439.595C109.416 424.015 111.926 407.287 118.568 395.445L126.109 382L133.649 395.445C140.291 407.287 142.801 424.015 140.912 439.595C148.677 425.897 160.684 413.818 173.12 408.085L187.239 401.576L185.32 416.821C183.631 430.249 175.686 445.237 164.867 456.747C179.316 450.162 196.234 447.346 209.715 449.912L225.019 452.826L214.375 464.048ZM106.503 503.663C117.193 514.198 134.524 514.198 145.213 503.663C155.902 493.128 155.902 476.047 145.213 465.512C134.524 454.977 117.193 454.977 106.503 465.512C95.8139 476.047 95.8139 493.128 106.503 503.663Z" fill="#F6DBA7"/>
</g>
<g opacity="0.6">
<path fill-rule="evenodd" clip-rule="evenodd" d="M627.375 -29.9518C617.999 -20.0665 602.633 -12.544 587.017 -9.5C602.633 -6.45575 617.999 1.06673 627.374 10.9518L638.017 22.1745L622.714 25.0876C609.233 27.6532 592.315 24.8375 577.866 18.2529C588.684 29.7636 596.629 44.7502 598.319 58.1787L600.237 73.4235L586.119 66.9158C573.683 61.183 561.676 49.1033 553.912 35.4052C555.8 50.9842 553.29 67.7122 546.648 79.5551L539.108 93L531.568 79.5551C524.926 67.7122 522.416 50.9842 524.304 35.4052C516.541 49.1033 504.534 61.1819 492.097 66.9158L477.979 73.4235L479.897 58.1787C481.586 44.7502 489.532 29.7636 500.351 18.2529C485.901 24.8375 468.983 27.6542 455.503 25.0876L440.199 22.1745L450.843 10.9518C460.218 1.0657 475.584 -6.45575 491.201 -9.5C475.584 -12.5445 460.218 -20.0665 450.843 -29.9518L440.199 -41.1745L455.503 -44.0878C468.983 -46.6536 485.901 -43.8375 500.351 -37.2532C489.532 -48.7632 481.586 -63.7506 479.897 -77.1791L477.979 -92.4244L492.098 -85.9154C504.534 -80.1826 516.541 -68.1034 524.305 -54.4055C522.416 -69.9845 524.926 -86.7125 531.568 -98.5554L539.109 -112L546.649 -98.5554C553.291 -86.7125 555.801 -69.9845 553.912 -54.4055C561.677 -68.1034 573.684 -80.1821 586.12 -85.9154L600.239 -92.4244L598.32 -77.1791C596.631 -63.7506 588.686 -48.7632 577.867 -37.2532C592.316 -43.8375 609.234 -46.6541 622.715 -44.0878L638.019 -41.1745L627.375 -29.9518ZM519.503 9.6634C530.193 20.1983 547.524 20.1983 558.213 9.6634C568.902 -0.871553 568.902 -17.9529 558.213 -28.488C547.524 -39.0232 530.193 -39.0232 519.503 -28.488C508.814 -17.9529 508.814 -0.871553 519.503 9.6634Z" fill="#F6DBA7"/>
</g>
</g>
<defs>
<clipPath id="clip0_154_45">
<rect width="1440" height="493" fill="white"/>
</clipPath>
</defs>
</svg>
